# xmcd
#
# Track frame offsets: 
#        150
#        16650
#        30600
#        42750
#        52650
#        77923
#        98623
#        112092
#        123942
#        135192
#        146442
#        162642
#        174192
#        196392
#
# Disc length: 2975 seconds
#
# Revision: 0
# Processed by: cddbd v1.5.2PL0 Copyright (c) Steve Scherf et al.
# Submitted via: ExactAudioCopy v0.99pb3
#
DISCID=a50b9d0e
DTITLE=Candye Kane and Sue Palmer - One Night In Belgium
DYEAR=2011
DGENRE=Blues
TTITLE0=Don't Cry Sister
TTITLE1=Gimme A Pigfoot And A Bottle Of Beer
TTITLE2=Scream In The Night
TTITLE3=Do You Want It
TTITLE4=Lover Man
TTITLE5=Dragnet For Jesus
TTITLE6=That's Enough
TTITLE7=Swing Brother Swing
TTITLE8=The Lady Is A Tramp
TTITLE9=Dream A Little Dream
TTITLE10=Only Time Will Tell
TTITLE11=I Left My Heart In Texas
TTITLE12=Cry Me A River
TTITLE13=Boogie Woogie Country Girl
EXTD=
EXTT0=
EXTT1=
EXTT2=
EXTT3=
EXTT4=
EXTT5=
EXTT6=
EXTT7=
EXTT8=
EXTT9=
EXTT10=
EXTT11=
EXTT12=
EXTT13=
PLAYORDER=
